                                                                        S      1
,,12HGDEW042T2 v7,12HGDEW042T2 v7,7Hunknown,7Hunknown,32,38,7,99,15,,1.,G      1
2,2HMM,1,0.08,15H20200622.201658,0.01,10000.,7Hunknown,7Hunknown,11,0,  G      2
15H20200622.181040;                                                     G      3
     186       1                                                00000000D      1
     186            -167       1       0                               0D      2
     514       2                                                00010000D      3
     514                       2       1                               0D      4
     510       4                                                00010000D      5
     510            -167       1       1                               0D      6
     510       5                                                00010000D      7
     510            -167       1       1                               0D      8
     510       6                                                00010000D      9
     510            -167       1       1                               0D     10
     510       7                                                00010000D     11
     510            -167       1       1                               0D     12
     510       8                                                00010000D     13
     510            -167       1       1                               0D     14
     510       9                                                00010000D     15
     510            -167       1       1                               0D     16
     510      10                                                00010000D     17
     510            -167       1       1                               0D     18
     510      11                                                00010000D     19
     510            -167       1       1                               0D     20
     510      12                                                00010000D     21
     510            -167       1       1                               0D     22
     510      13                                                00010000D     23
     510            -167       1       1                               0D     24
     510      14                                                00010000D     25
     510            -167       1       1                               0D     26
     510      15                                                00010000D     27
     510            -167       1       1                               0D     28
     510      16                                                00010000D     29
     510            -167       1       1                               0D     30
     510      17                                                00010000D     31
     510            -167       1       1                               0D     32
     508      18                                                00010000D     33
     508                       1       1                               0D     34
     508      19                                                00010000D     35
     508                       1       1                               0D     36
     508      20                                                00010000D     37
     508                       1       1                               0D     38
     508      21                                                00010000D     39
     508                       1       1                               0D     40
     508      22                                                00010000D     41
     508                       1       1                               0D     42
     508      23                                                00010000D     43
     508                       1       1                               0D     44
     508      24                                                00010000D     45
     508                       1       1                               0D     46
     508      25                                                00010000D     47
     508                       1       1                               0D     48
     508      26                                                00010000D     49
     508                       1       1                               0D     50
     508      27                                                00010000D     51
     508                       1       1                               0D     52
     508      28                                                00010000D     53
     508                       1       1                               0D     54
     508      29                                                00010000D     55
     508                       1       1                               0D     56
     508      30                                                00010000D     57
     508                       3       1                               0D     58
     508      33                                                00010000D     59
     508                       3       1                               0D     60
     126      36                                                00010000D     61
     126       0               2       0                               0D     62
     126      38                                                00010000D     63
     126       0               2       0                               0D     64
     126      40                                                00010000D     65
     126       0               2       0                               0D     66
     126      42                                                00010000D     67
     126       0               2       0                               0D     68
     126      44                                                00010000D     69
     126       0               2       0                               0D     70
     126      46                                                00010000D     71
     126       0               2       0                               0D     72
     126      48                                                00010000D     73
     126       0               2       0                               0D     74
     126      50                                                00010000D     75
     126       0               2       0                               0D     76
     126      52                                                00010000D     77
     126       0               2       0                               0D     78
     126      54                                                00010000D     79
     126       0               2       0                               0D     80
     126      56                                                00010000D     81
     126       0               2       0                               0D     82
     126      58                                                00010000D     83
     126       0               2       0                               0D     84
     126      60                                                00010000D     85
     126       0               2       0                               0D     86
     126      62                                                00010000D     87
     126       0               2       0                               0D     88
     126      64                                                00010000D     89
     126       0               2       0                               0D     90
     126      66                                                00010000D     91
     126       0               2       0                               0D     92
     126      68                                                00010000D     93
     126       0               2       0                               0D     94
     126      70                                                00010000D     95
     126       0               2       0                               0D     96
     126      72                                                00010000D     97
     126       0               2       0                               0D     98
     126      74                                                00010000D     99
     126       0               2       0                               0D    100
     126      76                                                00010000D    101
     126       0               2       0                               0D    102
     126      78                                                00010000D    103
     126       0               2       0                               0D    104
     126      80                                                00010000D    105
     126       0               2       0                               0D    106
     126      82                                                00010000D    107
     126       0               2       0                               0D    108
     126      84                                                00010000D    109
     126       0               2       0                               0D    110
     126      86                                                00010000D    111
     126       0               2       0                               0D    112
     126      88                                                00010000D    113
     126       0               2       0                               0D    114
     126      90                                                00010000D    115
     126       0               2       0                               0D    116
     126      92                                                00010000D    117
     126       0               2       0                               0D    118
     126      94                                                00010000D    119
     126       0               2       0                               0D    120
     126      96                                                00010000D    121
     126       0               2       0                               0D    122
     126      98                                                00010000D    123
     126       0               2       0                               0D    124
     126     100                                                00010000D    125
     126       0               2       0                               0D    126
     126     102                                                00010000D    127
     126       0               2       0                               0D    128
     126     104                                                00010000D    129
     126       0               2       0                               0D    130
     126     106                                                00010000D    131
     126       0               2       0                               0D    132
     128     108                                                00010000D    133
     128       0    -167       3       0                               0D    134
     128     111                                                00010000D    135
     128       0    -167       4       0                               0D    136
     128     115                                                00010000D    137
     128       0    -167       3       0                               0D    138
     128     118                                                00010000D    139
     128       0    -167       3       0                               0D    140
     128     121                                                00010000D    141
     128       0    -167       4       0                               0D    142
     128     125                                                00010000D    143
     128       0    -167       4       0                               0D    144
     128     129                                                00010000D    145
     128       0    -167       3       0                               0D    146
     128     132                                                00010000D    147
     128       0    -167       3       0                               0D    148
     128     135                                                00010000D    149
     128       0    -167       3       0                               0D    150
     128     138                                                00010000D    151
     128       0    -167       3       0                               0D    152
     128     141                                                00010000D    153
     128       0    -167       3       0                               0D    154
     128     144                                                00010000D    155
     128       0    -167       3       0                               0D    156
     128     147                                                00010000D    157
     128       0    -167       4       0                               0D    158
     128     151                                                00010000D    159
     128       0    -167       4       0                               0D    160
     502     155                                                00010000D    161
     502                       6       1                               0D    162
     504     161                                                00010001D    163
     504                      10       1                               0D    164
     406     171                                                00000000D    165
     406                       1      15                               0D    166
     314     172                                                00000200D    167
     314                       2       0                               0D    168
186,3,1,0,0,1,165;                                                     1P      1
514,14,5,1,7,1,9,1,11,1,13,1,15,1,17,1,19,1,21,1,23,1,25,1,27,1,       3P      2
29,1,31,1;                                                             3P      3
510,133,1,1,33;                                                        5P      4
510,135,1,1,35;                                                        7P      5
510,137,1,1,37;                                                        9P      6
510,139,1,1,39;                                                       11P      7
510,141,1,1,41;                                                       13P      8
510,143,1,1,43;                                                       15P      9
510,145,1,1,45;                                                       17P     10
510,147,1,1,47;                                                       19P     11
510,149,1,1,49;                                                       21P     12
510,151,1,1,51;                                                       23P     13
510,153,1,1,53;                                                       25P     14
510,155,1,1,55;                                                       27P     15
510,157,1,1,57;                                                       29P     16
510,159,1,1,59;                                                       31P     17
508,4,0,163,1,0,0,0,163,2,1,0,0,163,3,0,0,0,163,4,0,0;                33P     18
508,4,0,163,5,0,0,0,163,4,1,0,0,163,6,0,0,0,163,7,0,0;                35P     19
508,4,0,163,8,0,0,0,163,7,1,0,0,163,9,0,0,0,163,10,0,0;               37P     20
508,4,0,163,11,0,0,0,163,10,1,0,0,163,12,0,0,0,163,13,0,0;            39P     21
508,4,0,163,14,0,0,0,163,13,1,0,0,163,15,0,0,0,163,16,0,0;            41P     22
508,4,0,163,17,1,0,0,163,16,1,0,0,163,18,0,0,0,163,19,0,0;            43P     23
508,4,0,163,20,1,0,0,163,19,1,0,0,163,21,0,0,0,163,22,0,0;            45P     24
508,4,0,163,23,1,0,0,163,22,1,0,0,163,24,0,0,0,163,25,0,0;            47P     25
508,4,0,163,26,1,0,0,163,25,1,0,0,163,27,0,0,0,163,28,0,0;            49P     26
508,4,0,163,29,1,0,0,163,28,1,0,0,163,30,0,0,0,163,31,0,0;            51P     27
508,4,0,163,32,1,0,0,163,31,1,0,0,163,33,0,0,0,163,34,0,0;            53P     28
508,4,0,163,35,1,0,0,163,34,1,0,0,163,36,0,0,0,163,2,0,0;             55P     29
508,12,0,163,36,1,0,0,163,33,1,0,0,163,30,1,0,0,163,27,1,0,0,         57P     30
163,24,1,0,0,163,21,1,0,0,163,18,1,0,0,163,15,1,0,0,163,12,1,0,       57P     31
0,163,9,1,0,0,163,6,1,0,0,163,3,1,0;                                  57P     32
508,12,0,163,35,0,0,0,163,1,1,0,0,163,5,1,0,0,163,8,1,0,0,163,        59P     33
11,1,0,0,163,14,1,0,0,163,17,0,0,0,163,20,0,0,0,163,23,0,0,0,         59P     34
163,26,0,0,0,163,29,0,0,0,163,32,0,0;                                 59P     35
126,1,1,0,0,1,0,5.35,5.35,9.1,9.1,1.,1.,-53.5,0.,0.,-91.,0.,0.,       61P     36
5.35,9.1,0.,0.,0.;                                                    61P     37
126,1,1,0,0,1,0,0.,0.,0.118,0.118,1.,1.,-53.5,0.,0.,-53.5,1.18,       63P     38
0.,0.,0.118,0.,0.,0.;                                                 63P     39
126,1,1,0,0,1,0,-9.1,-9.1,-5.35,-5.35,1.,1.,-91.,1.18,0.,-53.5,       65P     40
1.18,0.,-9.1,-5.35,0.,0.,0.;                                          65P     41
126,1,1,0,0,1,0,0.,0.,0.118,0.118,1.,1.,-91.,0.,0.,-91.,1.18,0.,      67P     42
0.,0.118,0.,0.,0.;                                                    67P     43
126,1,1,0,0,1,0,0.,0.,7.7,7.7,1.,1.,-91.,0.,0.,-91.,0.,-77.,0.,       69P     44
7.7,0.,0.,0.;                                                         69P     45
126,1,1,0,0,1,0,-7.7,-7.7,0.,0.,1.,1.,-91.,1.18,-77.,-91.,1.18,       71P     46
0.,-7.7,0.,0.,0.,0.;                                                  71P     47
126,1,1,0,0,1,0,0.,0.,0.118,0.118,1.,1.,-91.,0.,-77.,-91.,1.18,       73P     48
-77.,0.,0.118,0.,0.,0.;                                               73P     49
126,1,1,0,0,1,0,0.,0.,9.1,9.1,1.,1.,-91.,0.,-77.,0.,0.,-77.,0.,       75P     50
9.1,0.,0.,0.;                                                         75P     51
126,1,1,0,0,1,0,-9.1,-9.1,0.,0.,1.,1.,0.,1.18,-77.,-91.,1.18,         77P     52
-77.,-9.1,0.,0.,0.,0.;                                                77P     53
126,1,1,0,0,1,0,0.,0.,0.118,0.118,1.,1.,0.,0.,-77.,0.,1.18,-77.,      79P     54
0.,0.118,0.,0.,0.;                                                    79P     55
126,1,1,0,0,1,0,0.,0.,7.7,7.7,1.,1.,0.,0.,-77.,0.,0.,0.,0.,7.7,       81P     56
0.,0.,0.;                                                             81P     57
126,1,1,0,0,1,0,-7.7,-7.7,0.,0.,1.,1.,0.,1.18,0.,0.,1.18,-77.,        83P     58
-7.7,0.,0.,0.,0.;                                                     83P     59
126,1,1,0,0,1,0,0.,0.,0.118,0.118,1.,1.,0.,0.,0.,0.,1.18,0.,0.,       85P     60
0.118,0.,0.,0.;                                                       85P     61
126,1,1,0,0,1,0,0.,0.,3.75,3.75,1.,1.,0.,0.,0.,-37.5,0.,0.,0.,        87P     62
3.75,0.,0.,0.;                                                        87P     63
126,1,1,0,0,1,0,-3.75,-3.75,0.,0.,1.,1.,-37.5,1.18,0.,0.,1.18,        89P     64
0.,-3.75,0.,0.,0.,0.;                                                 89P     65
126,1,1,0,0,1,0,0.,0.,0.118,0.118,1.,1.,-37.5,0.,0.,-37.5,1.18,       91P     66
0.,0.,0.118,0.,0.,0.;                                                 91P     67
126,1,1,0,0,1,0,0.,0.,1.,1.,1.,1.,-37.5,0.,10.,-37.5,0.,0.,0.,        93P     68
1.,0.,0.,0.;                                                          93P     69
126,1,1,0,0,1,0,0.,0.,1.,1.,1.,1.,-37.5,1.18,10.,-37.5,1.18,0.,       95P     70
0.,1.,0.,0.,0.;                                                       95P     71
126,1,1,0,0,1,0,0.,0.,0.118,0.118,1.,1.,-37.5,0.,10.,-37.5,1.18,      97P     72
10.,0.,0.118,0.,0.,0.;                                                97P     73
126,1,1,0,0,1,0,0.,0.,2.42,2.42,1.,1.,-61.7,0.,10.,-37.5,0.,10.,      99P     74
0.,2.42,0.,0.,0.;                                                     99P     75
126,1,1,0,0,1,0,0.,0.,2.42,2.42,1.,1.,-61.7,1.18,10.,-37.5,1.18,     101P     76
10.,0.,2.42,0.,0.,0.;                                                101P     77
126,1,1,0,0,1,0,0.,0.,0.118,0.118,1.,1.,-61.7,0.,10.,-61.7,1.18,     103P     78
10.,0.,0.118,0.,0.,0.;                                               103P     79
126,1,1,0,0,1,0,0.,0.,0.85,0.85,1.,1.,-61.7,0.,18.5,-61.7,0.,        105P     80
10.,0.,0.85,0.,0.,0.;                                                105P     81
126,1,1,0,0,1,0,0.,0.,0.85,0.85,1.,1.,-61.7,1.18,18.5,-61.7,         107P     82
1.18,10.,0.,0.85,0.,0.,0.;                                           107P     83
126,1,1,0,0,1,0,0.,0.,0.118,0.118,1.,1.,-61.7,0.,18.5,-61.7,         109P     84
1.18,18.5,0.,0.118,0.,0.,0.;                                         109P     85
126,1,1,0,0,1,0,0.,0.,1.25,1.25,1.,1.,-74.2,0.,18.5,-61.7,0.,        111P     86
18.5,0.,1.25,0.,0.,0.;                                               111P     87
126,1,1,0,0,1,0,0.,0.,1.25,1.25,1.,1.,-74.2,1.18,18.5,-61.7,         113P     88
1.18,18.5,0.,1.25,0.,0.,0.;                                          113P     89
126,1,1,0,0,1,0,0.,0.,0.118,0.118,1.,1.,-74.2,0.,18.5,-74.2,         115P     90
1.18,18.5,0.,0.118,0.,0.,0.;                                         115P     91
126,1,1,0,0,1,0,0.,0.,1.55,1.55,1.,1.,-74.2,0.,3.,-74.2,0.,18.5,     117P     92
0.,1.55,0.,0.,0.;                                                    117P     93
126,1,1,0,0,1,0,0.,0.,1.55,1.55,1.,1.,-74.2,1.18,3.,-74.2,1.18,      119P     94
18.5,0.,1.55,0.,0.,0.;                                               119P     95
126,1,1,0,0,1,0,0.,0.,0.118,0.118,1.,1.,-74.2,0.,3.,-74.2,1.18,      121P     96
3.,0.,0.118,0.,0.,0.;                                                121P     97
126,1,1,0,0,1,0,0.,0.,2.07,2.07,1.,1.,-53.5,0.,3.,-74.2,0.,3.,       123P     98
0.,2.07,0.,0.,0.;                                                    123P     99
126,1,1,0,0,1,0,0.,0.,2.07,2.07,1.,1.,-53.5,1.18,3.,-74.2,1.18,      125P    100
3.,0.,2.07,0.,0.,0.;                                                 125P    101
126,1,1,0,0,1,0,0.,0.,0.118,0.118,1.,1.,-53.5,0.,3.,-53.5,1.18,      127P    102
3.,0.,0.118,0.,0.,0.;                                                127P    103
126,1,1,0,0,1,0,0.,0.,0.3,0.3,1.,1.,-53.5,0.,0.,-53.5,0.,3.,0.,      129P    104
0.3,0.,0.,0.;                                                        129P    105
126,1,1,0,0,1,0,0.,0.,0.3,0.3,1.,1.,-53.5,1.18,0.,-53.5,1.18,3.,     131P    106
0.,0.3,0.,0.,0.;                                                     131P    107
128,1,1,1,1,0,0,1,0,0,-0.001,-0.001,3.751,3.751,-0.001,-0.001,       133P    108
0.119,0.119,1.,1.,1.,1.,-91.01,-0.01,0.,-53.49,-0.01,0.,-91.01,      133P    109
1.19,0.,-53.49,1.19,0.,-0.001,3.751,-0.001,0.119;                    133P    110
128,1,1,1,1,0,0,1,0,0,-0.001,-0.001,7.701,7.701,-0.001,-0.001,       135P    111
0.119,0.119,1.,1.,1.,1.,-91.,-0.01,-77.01,-91.,-0.01,                135P    112
0.0100000000000033,-91.,1.19,-77.01,-91.,1.19,                       135P    113
0.0100000000000033,-0.001,7.701,-0.001,0.119;                        135P    114
128,1,1,1,1,0,0,1,0,0,-0.001,-0.001,9.101,9.101,-0.001,-0.001,       137P    115
0.119,0.119,1.,1.,1.,1.,0.01,-0.01,-77.,-91.01,-0.01,-77.,0.01,      137P    116
1.19,-77.,-91.01,1.19,-77.,-0.001,9.101,-0.001,0.119;                137P    117
128,1,1,1,1,0,0,1,0,0,-0.001,-0.001,7.701,7.701,-0.001,-0.001,       139P    118
0.119,0.119,1.,1.,1.,1.,0.,-0.01,0.01,0.,-0.01,-77.01,0.,1.19,       139P    119
0.01,0.,1.19,-77.01,-0.001,7.701,-0.001,0.119;                       139P    120
128,1,1,1,1,0,0,1,0,0,-0.001,-0.001,3.751,3.751,-0.001,-0.001,       141P    121
0.119,0.119,1.,1.,1.,1.,-37.51,-0.01,0.,0.0099999999999989,          141P    122
-0.01,0.,-37.51,1.19,0.,0.0099999999999989,1.19,0.,-0.001,3.751,     141P    123
-0.001,0.119;                                                        141P    124
128,1,1,1,1,0,0,1,0,0,-0.001,-0.001,1.001,1.001,-0.001,-0.001,       143P    125
0.119,0.119,1.,1.,1.,1.,-37.5,-0.01,10.01,-37.5,-0.01,               143P    126
-0.0099999999999989,-37.5,1.19,10.01,-37.5,1.19,                     143P    127
-0.0099999999999989,-0.001,1.001,-0.001,0.119;                       143P    128
128,1,1,1,1,0,0,1,0,0,-0.001,-0.001,2.421,2.421,-0.001,-0.001,       145P    129
0.119,0.119,1.,1.,1.,1.,-61.71,-0.01,10.,-37.49,-0.01,10.,           145P    130
-61.71,1.19,10.,-37.49,1.19,10.,-0.001,2.421,-0.001,0.119;           145P    131
128,1,1,1,1,0,0,1,0,0,-0.001,-0.001,0.851,0.851,-0.001,-0.001,       147P    132
0.119,0.119,1.,1.,1.,1.,-61.7,-0.01,18.51,-61.7,-0.01,9.99,          147P    133
-61.7,1.19,18.51,-61.7,1.19,9.99,-0.001,0.851,-0.001,0.119;          147P    134
128,1,1,1,1,0,0,1,0,0,-0.001,-0.001,1.251,1.251,-0.001,-0.001,       149P    135
0.119,0.119,1.,1.,1.,1.,-74.21,-0.01,18.5,-61.69,-0.01,18.5,         149P    136
-74.21,1.19,18.5,-61.69,1.19,18.5,-0.001,1.251,-0.001,0.119;         149P    137
128,1,1,1,1,0,0,1,0,0,-0.001,-0.001,1.551,1.551,-0.001,-0.001,       151P    138
0.119,0.119,1.,1.,1.,1.,-74.2,-0.01,2.99,-74.2,-0.01,18.51,          151P    139
-74.2,1.19,2.99,-74.2,1.19,18.51,-0.001,1.551,-0.001,0.119;          151P    140
128,1,1,1,1,0,0,1,0,0,-0.001,-0.001,2.071,2.071,-0.001,-0.001,       153P    141
0.119,0.119,1.,1.,1.,1.,-53.49,-0.01,3.,-74.21,-0.01,3.,-53.49,      153P    142
1.19,3.,-74.21,1.19,3.,-0.001,2.071,-0.001,0.119;                    153P    143
128,1,1,1,1,0,0,1,0,0,-0.001,-0.001,0.301,0.301,-0.001,-0.001,       155P    144
0.119,0.119,1.,1.,1.,1.,-53.5,-0.01,-0.01,-53.5,-0.01,3.01,          155P    145
-53.5,1.19,-0.01,-53.5,1.19,3.01,-0.001,0.301,-0.001,0.119;          155P    146
128,1,1,1,1,0,0,1,0,0,-4.776,-4.776,4.776,4.776,-4.551,-4.551,       157P    147
4.551,4.551,1.,1.,1.,1.,-91.01,1.18,-77.01,-91.01,1.18,18.51,        157P    148
0.0100000000000033,1.18,-77.01,0.0100000000000122,1.18,18.51,        157P    149
-4.776,4.776,-4.551,4.551;                                           157P    150
128,1,1,1,1,0,0,1,0,0,-4.551,-4.551,4.551,4.551,-4.776,-4.776,       159P    151
4.776,4.776,1.,1.,1.,1.,0.0100000000000033,0.,18.51,-91.01,0.,       159P    152
18.51,0.0100000000000122,0.,-77.01,-91.01,0.,-77.01,-4.551,          159P    153
4.551,-4.776,4.776;                                                  159P    154
502,24,-53.5,0.,0.,-91.,0.,0.,-53.5,1.18,0.,-91.,1.18,0.,-91.,       161P    155
0.,-77.,-91.,1.18,-77.,0.,0.,-77.,0.,1.18,-77.,0.,0.,0.,0.,1.18,     161P    156
0.,-37.5,0.,0.,-37.5,1.18,0.,-37.5,0.,10.,-37.5,1.18,10.,-61.7,      161P    157
0.,10.,-61.7,1.18,10.,-61.7,0.,18.5,-61.7,1.18,18.5,-74.2,0.,        161P    158
18.5,-74.2,1.18,18.5,-74.2,0.,3.,-74.2,1.18,3.,-53.5,0.,3.,          161P    159
-53.5,1.18,3.;                                                       161P    160
504,36,61,161,1,161,2,63,161,1,161,3,65,161,4,161,3,67,161,2,        163P    161
161,4,69,161,2,161,5,71,161,6,161,4,73,161,5,161,6,75,161,5,161,     163P    162
7,77,161,8,161,6,79,161,7,161,8,81,161,7,161,9,83,161,10,161,8,      163P    163
85,161,9,161,10,87,161,9,161,11,89,161,12,161,10,91,161,11,161,      163P    164
12,93,161,13,161,11,95,161,14,161,12,97,161,13,161,14,99,161,15,     163P    165
161,13,101,161,16,161,14,103,161,15,161,16,105,161,17,161,15,        163P    166
107,161,18,161,16,109,161,17,161,18,111,161,19,161,17,113,161,       163P    167
20,161,18,115,161,19,161,20,117,161,21,161,19,119,161,22,161,20,     163P    168
121,161,21,161,22,123,161,23,161,21,125,161,24,161,22,127,161,       163P    169
23,161,24,129,161,1,161,23,131,161,3,161,24;                         163P    170
406,1,8HKörper1;                                                    165P    171
314,34.9019607843137,34.9019607843137,34.9019607843137,38HFarbe      167P    172
- Emaille glänzend (Dunkelgrau);                                    167P    173
S      1G      3D    168P    173                                        T      1
